<svg xmlns="http://www.w3.org/2000/svg" width="192" height="192" viewBox="0 0 192 192" version="1.1"><path d="M 34.096 42.985 C 26.783 50.788, 23.125 55.412, 23.613 56.235 C 24.026 56.931, 40.326 78.650, 59.837 104.500 C 79.348 130.350, 95.385 151.606, 95.475 151.736 C 95.565 151.866, 104.214 140.616, 114.695 126.736 C 125.175 112.856, 141.629 91.077, 151.258 78.339 L 168.766 55.177 157.300 43.089 L 145.834 31 95.581 31 L 45.329 31 34.096 42.985 M 89.450 50.407 C 87.773 51.137, 85.204 53.158, 83.740 54.897 C 82.277 56.636, 80.787 59.621, 80.428 61.529 C 80.070 63.438, 80.070 66.562, 80.429 68.471 C 80.787 70.380, 82.535 73.486, 84.314 75.372 C 86.228 77.401, 89.274 79.266, 91.774 79.939 C 94.750 80.740, 97.120 80.776, 99.785 80.058 C 101.867 79.497, 105.032 77.530, 106.820 75.686 C 108.607 73.842, 110.523 70.690, 111.077 68.682 C 111.763 66.197, 111.751 63.790, 111.039 61.146 C 110.464 59.009, 109.107 56.134, 108.024 54.757 C 106.941 53.380, 104.512 51.522, 102.626 50.627 C 100.740 49.732, 97.691 49.018, 95.849 49.039 C 94.007 49.061, 91.128 49.676, 89.450 50.407 M 57.923 58.923 C 55.928 60.918, 55 62.848, 55 65 C 55 67.152, 55.928 69.082, 57.923 71.077 C 59.918 73.072, 61.848 74, 64 74 C 66.152 74, 68.082 73.072, 70.077 71.077 C 72.072 69.082, 73 67.152, 73 65 C 73 62.848, 72.072 60.918, 70.077 58.923 C 68.082 56.928, 66.152 56, 64 56 C 61.848 56, 59.918 56.928, 57.923 58.923 M 121.077 58.589 C 118.596 60.677, 118 61.944, 118 65.134 C 118 68.002, 118.676 69.767, 120.455 71.545 C 122.233 73.324, 123.998 74, 126.866 74 C 130.056 74, 131.323 73.404, 133.411 70.923 C 134.937 69.109, 136 66.615, 136 64.846 C 136 62.864, 135.009 60.855, 133.077 58.923 C 131.145 56.991, 129.136 56, 127.154 56 C 125.385 56, 122.891 57.063, 121.077 58.589" stroke="none" fill="#0e65ec" fill-rule="evenodd"/><path d="M 21.500 35.171 C 12.150 45.081, 4.384 53.495, 4.242 53.869 C 4.100 54.243, 24.371 81.507, 49.288 114.457 C 74.206 147.406, 95.022 174.485, 95.546 174.633 C 96.071 174.781, 116.750 148.073, 141.500 115.282 C 166.250 82.492, 186.500 55.063, 186.500 54.329 C 186.500 53.595, 178.874 44.896, 169.553 34.998 L 152.606 17 95.553 17.076 L 38.500 17.153 21.500 35.171 M 34.096 42.985 C 26.783 50.788, 23.125 55.412, 23.613 56.235 C 24.026 56.931, 40.326 78.650, 59.837 104.500 C 79.348 130.350, 95.385 151.606, 95.475 151.736 C 95.565 151.866, 104.214 140.616, 114.695 126.736 C 125.175 112.856, 141.629 91.077, 151.258 78.339 L 168.766 55.177 157.300 43.089 L 145.834 31 95.581 31 L 45.329 31 34.096 42.985 M 89.450 50.407 C 87.773 51.137, 85.204 53.158, 83.740 54.897 C 82.277 56.636, 80.787 59.621, 80.428 61.529 C 80.070 63.438, 80.070 66.562, 80.429 68.471 C 80.787 70.380, 82.535 73.486, 84.314 75.372 C 86.228 77.401, 89.274 79.266, 91.774 79.939 C 94.750 80.740, 97.120 80.776, 99.785 80.058 C 101.867 79.497, 105.032 77.530, 106.820 75.686 C 108.607 73.842, 110.523 70.690, 111.077 68.682 C 111.763 66.197, 111.751 63.790, 111.039 61.146 C 110.464 59.009, 109.107 56.134, 108.024 54.757 C 106.941 53.380, 104.512 51.522, 102.626 50.627 C 100.740 49.732, 97.691 49.018, 95.849 49.039 C 94.007 49.061, 91.128 49.676, 89.450 50.407 M 57.923 58.923 C 55.928 60.918, 55 62.848, 55 65 C 55 67.152, 55.928 69.082, 57.923 71.077 C 59.918 73.072, 61.848 74, 64 74 C 66.152 74, 68.082 73.072, 70.077 71.077 C 72.072 69.082, 73 67.152, 73 65 C 73 62.848, 72.072 60.918, 70.077 58.923 C 68.082 56.928, 66.152 56, 64 56 C 61.848 56, 59.918 56.928, 57.923 58.923 M 121.077 58.589 C 118.596 60.677, 118 61.944, 118 65.134 C 118 68.002, 118.676 69.767, 120.455 71.545 C 122.233 73.324, 123.998 74, 126.866 74 C 130.056 74, 131.323 73.404, 133.411 70.923 C 134.937 69.109, 136 66.615, 136 64.846 C 136 62.864, 135.009 60.855, 133.077 58.923 C 131.145 56.991, 129.136 56, 127.154 56 C 125.385 56, 122.891 57.063, 121.077 58.589" stroke="none" fill="#fafafb" fill-rule="evenodd"/></svg>